<svg xmlns="http://www.w3.org/2000/svg" xmlns:xlink="http://www.w3.org/1999/xlink" width="500" zoomAndPan="magnify" viewBox="0 0 375 374.999991" height="500" preserveAspectRatio="xMidYMid meet" version="1.0"><defs><g/><clipPath id="2292580c48"><path d="M 163 100.152344 L 216 100.152344 L 216 208.152344 L 163 208.152344 Z M 163 100.152344 " clip-rule="nonzero"/></clipPath><clipPath id="e2f771f7b2"><path d="M 114.417969 165 L 189 165 L 189 208 L 114.417969 208 Z M 114.417969 165 " clip-rule="nonzero"/></clipPath><clipPath id="9514f45c7c"><path d="M 191 166 L 260.667969 166 L 260.667969 208 L 191 208 Z M 191 166 " clip-rule="nonzero"/></clipPath></defs><g clip-path="url(#2292580c48)"><path fill="#5ce1e6" d="M 197.589844 122.859375 C 197.589844 124.410156 197.148438 125.855469 196.386719 127.082031 C 196.0625 127.609375 195.675781 128.09375 195.238281 128.527344 C 194.9375 128.828125 194.617188 129.101562 194.273438 129.351562 C 193.4375 129.957031 192.476562 130.40625 191.4375 130.65625 C 190.835938 130.800781 190.207031 130.875 189.558594 130.875 C 189.339844 130.875 189.125 130.867188 188.910156 130.851562 C 184.777344 130.519531 181.527344 127.070312 181.527344 122.859375 C 181.527344 121.640625 181.800781 120.484375 182.289062 119.449219 C 183.574219 116.726562 186.347656 114.84375 189.558594 114.84375 C 193.996094 114.84375 197.589844 118.429688 197.589844 122.859375 Z M 215.28125 163.636719 C 215.359375 155.261719 212.023438 148.769531 204.824219 144.660156 C 206.640625 136.4375 207.960938 127.074219 205.539062 118.90625 C 203.207031 111.039062 198.617188 104.925781 190.109375 100.441406 L 189.558594 100.152344 L 189.011719 100.441406 C 180.980469 104.675781 176.023438 110.660156 173.578125 118.90625 C 171.15625 127.074219 172.476562 136.4375 174.296875 144.660156 C 167.097656 148.769531 163.757812 155.261719 163.839844 163.636719 C 163.910156 171.0625 166.605469 178.960938 169.578125 185.6875 L 171.683594 190.453125 L 171.824219 185.246094 C 172.039062 177.546875 174.035156 170.078125 179.800781 164.875 L 180.851562 168.355469 L 181.101562 168.160156 L 181.261719 171.304688 L 182.464844 171.148438 L 182.945312 171.90625 C 178.003906 176.445312 178.402344 182.3125 181.441406 188.1875 L 182.289062 189.824219 L 183.203125 188.640625 C 183.855469 194.355469 185.15625 201.074219 188.082031 205.585938 L 189.550781 208.152344 L 191.035156 205.585938 C 193.960938 201.074219 195.261719 194.355469 195.914062 188.640625 L 196.828125 189.824219 L 197.675781 188.1875 C 200.714844 182.3125 201.113281 176.445312 196.171875 171.90625 L 196.65625 171.148438 L 197.855469 171.304688 L 198.015625 168.160156 L 198.265625 168.355469 L 199.316406 164.875 C 205.082031 170.078125 207.078125 177.546875 207.292969 185.246094 L 207.4375 190.453125 L 209.539062 185.6875 C 212.511719 178.960938 215.207031 171.0625 215.277344 163.636719 Z M 215.28125 163.636719 " fill-opacity="1" fill-rule="evenodd"/></g><path fill="#004aad" d="M 195.109375 126.425781 C 195.726562 125.425781 196.085938 124.25 196.085938 122.992188 C 196.085938 119.394531 193.164062 116.476562 189.558594 116.476562 C 186.949219 116.476562 184.695312 118.007812 183.652344 120.21875 C 183.253906 121.0625 183.035156 122 183.035156 122.992188 C 183.035156 126.414062 185.675781 129.21875 189.03125 129.484375 C 189.207031 129.5 189.382812 129.507812 189.558594 129.507812 C 190.085938 129.507812 190.597656 129.445312 191.085938 129.328125 C 191.929688 129.125 192.710938 128.761719 193.390625 128.265625 C 193.667969 128.066406 193.929688 127.839844 194.175781 127.597656 C 194.527344 127.246094 194.84375 126.851562 195.109375 126.425781 Z M 195.109375 126.425781 " fill-opacity="1" fill-rule="evenodd"/><g clip-path="url(#e2f771f7b2)"><path fill="#004aad" d="M 168.464844 186.175781 C 165.730469 179.992188 163.273438 172.953125 162.730469 166.085938 C 159.472656 165.636719 156.128906 166.402344 153.367188 168.289062 C 149.933594 170.636719 147.789062 174.453125 147.578125 178.601562 C 150.707031 179.394531 153.464844 181.25 155.371094 183.851562 C 151.519531 179.429688 145.179688 178.128906 139.894531 180.675781 C 134.609375 183.222656 131.683594 188.988281 132.753906 194.75 C 133.824219 200.511719 138.625 204.84375 144.476562 205.328125 C 138.851562 205.636719 133.664062 202.308594 131.605469 197.074219 C 127.789062 198.710938 125.019531 202.109375 124.183594 206.171875 L 114.417969 207.953125 L 188.035156 207.953125 L 187.042969 206.214844 C 184.445312 202.199219 183.117188 196.695312 182.375 191.699219 L 182.085938 192.078125 L 180.363281 188.746094 C 177.503906 183.222656 176.78125 177.390625 180.613281 172.617188 L 180.113281 172.683594 L 179.957031 169.597656 L 179.222656 167.167969 C 174.746094 172.082031 173.222656 178.683594 173.042969 185.277344 L 172.75 195.882812 L 168.460938 186.175781 Z M 155.933594 205.886719 C 158.292969 198.4375 162.613281 196.59375 168.898438 200.355469 C 174.140625 194.871094 178.554688 194.839844 182.140625 200.261719 C 178.175781 196.246094 174.046875 196.964844 169.742188 202.417969 C 163.476562 198.8125 158.871094 199.96875 155.933594 205.886719 Z M 161.570312 190.039062 C 159.484375 188.367188 156.460938 188.570312 154.621094 190.507812 C 152.8125 189.53125 150.582031 189.820312 149.089844 191.226562 C 147.59375 192.632812 147.171875 194.839844 148.042969 196.699219 C 146.585938 194.839844 146.5 192.253906 147.828125 190.304688 C 149.160156 188.355469 151.601562 187.488281 153.867188 188.164062 C 155.074219 187.175781 156.671875 186.8125 158.1875 187.179688 C 159.703125 187.546875 160.957031 188.609375 161.570312 190.039062 Z M 161.570312 190.039062 " fill-opacity="1" fill-rule="evenodd"/></g><g clip-path="url(#9514f45c7c)"><path fill="#004aad" d="M 196.742188 191.699219 C 196 196.695312 194.671875 202.203125 192.074219 206.21875 L 191.070312 207.953125 L 232.394531 207.953125 C 232.566406 206.804688 232.097656 205.652344 231.171875 204.949219 C 231.082031 202.917969 230.03125 201.050781 228.339844 199.917969 C 226.648438 198.785156 224.515625 198.527344 222.601562 199.214844 C 222.230469 198.300781 221.453125 197.609375 220.496094 197.355469 C 219.539062 197.097656 218.519531 197.304688 217.742188 197.917969 C 218.101562 196.699219 219.074219 195.757812 220.308594 195.441406 C 221.539062 195.121094 222.847656 195.476562 223.753906 196.371094 C 226.0625 195.757812 228.527344 196.3125 230.351562 197.851562 C 232.175781 199.394531 233.132812 201.730469 232.910156 204.105469 C 234.101562 205 234.511719 206.597656 233.898438 207.949219 L 260.667969 207.949219 L 255.125 206.730469 C 254.632812 202.144531 251.273438 198.375 246.765625 197.355469 C 244.960938 202.066406 240.453125 205.191406 235.398438 205.230469 C 240.828125 204.371094 245.089844 200.125 245.972656 194.710938 C 246.851562 189.292969 244.152344 183.921875 239.273438 181.390625 C 234.394531 178.859375 228.441406 179.738281 224.503906 183.570312 C 226.042969 180.8125 228.792969 178.9375 231.925781 178.507812 C 231.285156 174.511719 229.011719 170.964844 225.648438 168.710938 C 222.898438 166.871094 219.628906 166.03125 216.371094 166.289062 C 215.796875 173.09375 213.359375 180.054688 210.65625 186.175781 L 206.371094 195.882812 L 206.078125 185.277344 C 205.894531 178.683594 204.371094 172.082031 199.898438 167.167969 L 199.164062 169.597656 L 199.003906 172.679688 L 198.503906 172.617188 C 202.335938 177.386719 201.613281 183.222656 198.757812 188.746094 L 197.035156 192.078125 Z M 219.328125 179.320312 C 217.761719 179.21875 216.285156 180.0625 215.582031 181.460938 C 215.597656 180.128906 216.347656 178.914062 217.535156 178.304688 C 218.71875 177.695312 220.144531 177.785156 221.242188 178.546875 C 222.335938 179.304688 222.925781 180.605469 222.765625 181.929688 C 222.25 180.449219 220.894531 179.421875 219.328125 179.320312 Z M 219.328125 179.320312 " fill-opacity="1" fill-rule="evenodd"/></g><g fill="#8c52ff" fill-opacity="1"><g transform="translate(136.277096, 242.920794)"><g><path d="M 6.5 0 L 1.328125 0 L 1.328125 -21.3125 L 7.671875 -21.3125 L 11.125 -9.921875 L 14.5625 -21.3125 L 20.90625 -21.3125 L 20.90625 0 L 15.765625 0 L 15.765625 -13.546875 L 13.109375 -4.609375 L 9.125 -4.609375 L 6.5 -13.46875 Z M 6.5 0 "/></g></g></g><g fill="#8c52ff" fill-opacity="1"><g transform="translate(157.675312, 242.920794)"><g><path d="M 12.1875 0 L 11.515625 -3.1875 L 6.40625 -3.1875 L 5.703125 0 L 0 0 L 5.46875 -21.3125 L 12.546875 -21.3125 L 18.015625 0 Z M 7.296875 -7.296875 L 10.625 -7.296875 L 9 -14.96875 Z M 7.296875 -7.296875 "/></g></g></g><g fill="#8c52ff" fill-opacity="1"><g transform="translate(174.860214, 242.920794)"><g><path d="M 14.171875 -21.3125 L 14.171875 -17.15625 L 10.0625 -17.15625 L 10.0625 0 L 4.25 0 L 4.25 -17.15625 L 0.171875 -17.15625 L 0.171875 -21.3125 Z M 14.171875 -21.3125 "/></g></g></g><g fill="#8c52ff" fill-opacity="1"><g transform="translate(188.362611, 242.920794)"><g><path d="M 15.59375 -13.34375 L 9.796875 -13.34375 L 9.796875 -16.765625 C 9.796875 -17.242188 9.515625 -17.484375 8.953125 -17.484375 L 7.796875 -17.484375 C 7.242188 -17.484375 6.96875 -17.242188 6.96875 -16.765625 L 6.96875 -4.546875 C 6.96875 -4.054688 7.242188 -3.8125 7.796875 -3.8125 L 8.953125 -3.8125 C 9.515625 -3.8125 9.796875 -4.054688 9.796875 -4.546875 L 9.796875 -7.828125 L 15.59375 -7.828125 L 15.59375 -4.109375 C 15.59375 -1.367188 13.96875 0 10.71875 0 L 6.046875 0 C 2.785156 0 1.15625 -1.367188 1.15625 -4.109375 L 1.15625 -17.1875 C 1.15625 -19.9375 2.785156 -21.3125 6.046875 -21.3125 L 10.71875 -21.3125 C 13.96875 -21.3125 15.59375 -19.9375 15.59375 -17.1875 Z M 15.59375 -13.34375 "/></g></g></g><g fill="#8c52ff" fill-opacity="1"><g transform="translate(203.955082, 242.920794)"><g><path d="M 12.1875 0 L 11.515625 -3.1875 L 6.40625 -3.1875 L 5.703125 0 L 0 0 L 5.46875 -21.3125 L 12.546875 -21.3125 L 18.015625 0 Z M 7.296875 -7.296875 L 10.625 -7.296875 L 9 -14.96875 Z M 7.296875 -7.296875 "/></g></g></g><g fill="#8c52ff" fill-opacity="1"><g transform="translate(221.139987, 242.920794)"><g><path d="M 13.203125 -10.890625 L 17.390625 0 L 11.15625 0 L 7.171875 -10.890625 L 11.125 -21.3125 L 17.359375 -21.3125 Z M 1.328125 0 L 1.328125 -21.3125 L 7.140625 -21.3125 L 7.140625 0 Z M 1.328125 0 "/></g></g></g><g fill="#545454" fill-opacity="1"><g transform="translate(112.133911, 219.654799)"><g><path d="M 7.109375 0 L 6.578125 -1.609375 L 3.140625 -1.609375 L 2.609375 0 L 0.125 0 L 3.453125 -9.609375 L 6.296875 -9.609375 L 9.609375 0 Z M 3.734375 -3.390625 L 6 -3.390625 L 4.859375 -6.796875 Z M 3.734375 -3.390625 "/></g></g></g><g fill="#545454" fill-opacity="1"><g transform="translate(127.264915, 219.654799)"><g><path d="M 4.28125 -7.875 C 3.988281 -7.875 3.75 -7.796875 3.5625 -7.640625 C 3.375 -7.492188 3.28125 -7.273438 3.28125 -6.984375 C 3.28125 -6.691406 3.363281 -6.457031 3.53125 -6.28125 C 3.707031 -6.101562 3.929688 -5.960938 4.203125 -5.859375 C 4.484375 -5.765625 4.796875 -5.675781 5.140625 -5.59375 C 5.484375 -5.507812 5.820312 -5.40625 6.15625 -5.28125 C 6.5 -5.15625 6.804688 -5 7.078125 -4.8125 C 7.359375 -4.632812 7.582031 -4.378906 7.75 -4.046875 C 7.925781 -3.710938 8.015625 -3.316406 8.015625 -2.859375 C 8.015625 -2.046875 7.679688 -1.347656 7.015625 -0.765625 C 6.359375 -0.191406 5.488281 0.09375 4.40625 0.09375 C 3.332031 0.09375 2.460938 -0.164062 1.796875 -0.6875 C 1.140625 -1.207031 0.8125 -1.941406 0.8125 -2.890625 L 3.3125 -2.890625 C 3.375 -2.128906 3.765625 -1.75 4.484375 -1.75 C 4.816406 -1.75 5.078125 -1.835938 5.265625 -2.015625 C 5.460938 -2.191406 5.5625 -2.414062 5.5625 -2.6875 C 5.5625 -2.957031 5.472656 -3.179688 5.296875 -3.359375 C 5.128906 -3.535156 4.90625 -3.671875 4.625 -3.765625 C 4.34375 -3.867188 4.03125 -3.960938 3.6875 -4.046875 C 3.351562 -4.128906 3.015625 -4.234375 2.671875 -4.359375 C 2.335938 -4.492188 2.03125 -4.648438 1.75 -4.828125 C 1.476562 -5.003906 1.253906 -5.257812 1.078125 -5.59375 C 0.898438 -5.925781 0.8125 -6.320312 0.8125 -6.78125 C 0.8125 -7.664062 1.144531 -8.375 1.8125 -8.90625 C 2.476562 -9.445312 3.328125 -9.71875 4.359375 -9.71875 C 5.390625 -9.71875 6.222656 -9.484375 6.859375 -9.015625 C 7.503906 -8.546875 7.835938 -7.804688 7.859375 -6.796875 L 5.328125 -6.796875 C 5.285156 -7.140625 5.171875 -7.40625 4.984375 -7.59375 C 4.804688 -7.78125 4.570312 -7.875 4.28125 -7.875 Z M 4.28125 -7.875 "/></g></g></g><g fill="#545454" fill-opacity="1"><g transform="translate(141.494868, 219.654799)"><g><path d="M 4.28125 -7.875 C 3.988281 -7.875 3.75 -7.796875 3.5625 -7.640625 C 3.375 -7.492188 3.28125 -7.273438 3.28125 -6.984375 C 3.28125 -6.691406 3.363281 -6.457031 3.53125 -6.28125 C 3.707031 -6.101562 3.929688 -5.960938 4.203125 -5.859375 C 4.484375 -5.765625 4.796875 -5.675781 5.140625 -5.59375 C 5.484375 -5.507812 5.820312 -5.40625 6.15625 -5.28125 C 6.5 -5.15625 6.804688 -5 7.078125 -4.8125 C 7.359375 -4.632812 7.582031 -4.378906 7.75 -4.046875 C 7.925781 -3.710938 8.015625 -3.316406 8.015625 -2.859375 C 8.015625 -2.046875 7.679688 -1.347656 7.015625 -0.765625 C 6.359375 -0.191406 5.488281 0.09375 4.40625 0.09375 C 3.332031 0.09375 2.460938 -0.164062 1.796875 -0.6875 C 1.140625 -1.207031 0.8125 -1.941406 0.8125 -2.890625 L 3.3125 -2.890625 C 3.375 -2.128906 3.765625 -1.75 4.484375 -1.75 C 4.816406 -1.75 5.078125 -1.835938 5.265625 -2.015625 C 5.460938 -2.191406 5.5625 -2.414062 5.5625 -2.6875 C 5.5625 -2.957031 5.472656 -3.179688 5.296875 -3.359375 C 5.128906 -3.535156 4.90625 -3.671875 4.625 -3.765625 C 4.34375 -3.867188 4.03125 -3.960938 3.6875 -4.046875 C 3.351562 -4.128906 3.015625 -4.234375 2.671875 -4.359375 C 2.335938 -4.492188 2.03125 -4.648438 1.75 -4.828125 C 1.476562 -5.003906 1.253906 -5.257812 1.078125 -5.59375 C 0.898438 -5.925781 0.8125 -6.320312 0.8125 -6.78125 C 0.8125 -7.664062 1.144531 -8.375 1.8125 -8.90625 C 2.476562 -9.445312 3.328125 -9.71875 4.359375 -9.71875 C 5.390625 -9.71875 6.222656 -9.484375 6.859375 -9.015625 C 7.503906 -8.546875 7.835938 -7.804688 7.859375 -6.796875 L 5.328125 -6.796875 C 5.285156 -7.140625 5.171875 -7.40625 4.984375 -7.59375 C 4.804688 -7.78125 4.570312 -7.875 4.28125 -7.875 Z M 4.28125 -7.875 "/></g></g></g><g fill="#545454" fill-opacity="1"><g transform="translate(155.72482, 219.654799)"><g><path d="M 7.21875 -2.8125 C 7.675781 -3.3125 7.90625 -3.976562 7.90625 -4.8125 C 7.90625 -5.65625 7.675781 -6.328125 7.21875 -6.828125 C 6.757812 -7.328125 6.144531 -7.578125 5.375 -7.578125 C 4.601562 -7.578125 3.988281 -7.328125 3.53125 -6.828125 C 3.070312 -6.328125 2.84375 -5.65625 2.84375 -4.8125 C 2.84375 -3.976562 3.070312 -3.3125 3.53125 -2.8125 C 3.988281 -2.3125 4.601562 -2.0625 5.375 -2.0625 C 6.144531 -2.0625 6.757812 -2.3125 7.21875 -2.8125 Z M 1.890625 -1.296875 C 0.941406 -2.222656 0.46875 -3.394531 0.46875 -4.8125 C 0.46875 -6.238281 0.941406 -7.410156 1.890625 -8.328125 C 2.835938 -9.253906 4 -9.71875 5.375 -9.71875 C 6.757812 -9.71875 7.921875 -9.253906 8.859375 -8.328125 C 9.804688 -7.410156 10.28125 -6.238281 10.28125 -4.8125 C 10.28125 -3.394531 9.804688 -2.222656 8.859375 -1.296875 C 7.910156 -0.367188 6.75 0.09375 5.375 0.09375 C 4 0.09375 2.835938 -0.367188 1.890625 -1.296875 Z M 1.890625 -1.296875 "/></g></g></g><g fill="#545454" fill-opacity="1"><g transform="translate(171.879739, 219.654799)"><g><path d="M 1.890625 -1.296875 C 0.941406 -2.222656 0.46875 -3.394531 0.46875 -4.8125 C 0.46875 -6.238281 0.941406 -7.410156 1.890625 -8.328125 C 2.835938 -9.253906 4 -9.71875 5.375 -9.71875 C 6.445312 -9.71875 7.394531 -9.4375 8.21875 -8.875 C 9.050781 -8.3125 9.628906 -7.53125 9.953125 -6.53125 L 7.171875 -6.53125 C 6.804688 -7.226562 6.222656 -7.578125 5.421875 -7.578125 C 4.617188 -7.578125 3.988281 -7.328125 3.53125 -6.828125 C 3.070312 -6.328125 2.84375 -5.65625 2.84375 -4.8125 C 2.84375 -3.976562 3.070312 -3.3125 3.53125 -2.8125 C 3.988281 -2.3125 4.617188 -2.0625 5.421875 -2.0625 C 6.222656 -2.0625 6.804688 -2.410156 7.171875 -3.109375 L 9.953125 -3.109375 C 9.628906 -2.109375 9.050781 -1.328125 8.21875 -0.765625 C 7.394531 -0.203125 6.445312 0.078125 5.375 0.078125 C 4 0.078125 2.835938 -0.378906 1.890625 -1.296875 Z M 1.890625 -1.296875 "/></g></g></g><g fill="#545454" fill-opacity="1"><g transform="translate(187.707003, 219.654799)"><g><path d="M 1.03125 0 L 1.03125 -9.59375 L 3.359375 -9.59375 L 3.359375 0 Z M 1.03125 0 "/></g></g></g><g fill="#545454" fill-opacity="1"><g transform="translate(197.486317, 219.654799)"><g><path d="M 7.109375 0 L 6.578125 -1.609375 L 3.140625 -1.609375 L 2.609375 0 L 0.125 0 L 3.453125 -9.609375 L 6.296875 -9.609375 L 9.609375 0 Z M 3.734375 -3.390625 L 6 -3.390625 L 4.859375 -6.796875 Z M 3.734375 -3.390625 "/></g></g></g><g fill="#545454" fill-opacity="1"><g transform="translate(212.617322, 219.654799)"><g><path d="M 0.375 -7.8125 L 0.375 -9.59375 L 7.9375 -9.59375 L 7.9375 -7.8125 L 5.3125 -7.8125 L 5.3125 0 L 2.984375 0 L 2.984375 -7.8125 Z M 0.375 -7.8125 "/></g></g></g><g fill="#545454" fill-opacity="1"><g transform="translate(226.314834, 219.654799)"><g><path d="M 1.03125 0 L 1.03125 -9.59375 L 3.359375 -9.59375 L 3.359375 0 Z M 1.03125 0 "/></g></g></g><g fill="#545454" fill-opacity="1"><g transform="translate(236.094142, 219.654799)"><g><path d="M 7.21875 -2.8125 C 7.675781 -3.3125 7.90625 -3.976562 7.90625 -4.8125 C 7.90625 -5.65625 7.675781 -6.328125 7.21875 -6.828125 C 6.757812 -7.328125 6.144531 -7.578125 5.375 -7.578125 C 4.601562 -7.578125 3.988281 -7.328125 3.53125 -6.828125 C 3.070312 -6.328125 2.84375 -5.65625 2.84375 -4.8125 C 2.84375 -3.976562 3.070312 -3.3125 3.53125 -2.8125 C 3.988281 -2.3125 4.601562 -2.0625 5.375 -2.0625 C 6.144531 -2.0625 6.757812 -2.3125 7.21875 -2.8125 Z M 1.890625 -1.296875 C 0.941406 -2.222656 0.46875 -3.394531 0.46875 -4.8125 C 0.46875 -6.238281 0.941406 -7.410156 1.890625 -8.328125 C 2.835938 -9.253906 4 -9.71875 5.375 -9.71875 C 6.757812 -9.71875 7.921875 -9.253906 8.859375 -8.328125 C 9.804688 -7.410156 10.28125 -6.238281 10.28125 -4.8125 C 10.28125 -3.394531 9.804688 -2.222656 8.859375 -1.296875 C 7.910156 -0.367188 6.75 0.09375 5.375 0.09375 C 4 0.09375 2.835938 -0.367188 1.890625 -1.296875 Z M 1.890625 -1.296875 "/></g></g></g><g fill="#545454" fill-opacity="1"><g transform="translate(252.249055, 219.654799)"><g><path d="M 7.265625 -9.609375 L 9.59375 -9.609375 L 9.59375 0 L 7.265625 0 L 3.359375 -6.046875 L 3.359375 0 L 1.03125 0 L 1.03125 -9.609375 L 3.359375 -9.609375 L 7.265625 -3.5625 Z M 7.265625 -9.609375 "/></g></g></g></svg>